<svg width="101" height="35" viewBox="0 0 101 35" fill="none" xmlns="http://www.w3.org/2000/svg">
<g clip-path="url(#clip0_9_4222)">
<path d="M97.8253 18.5679C97.5253 20.6979 99.1253 28.0979 97.4653 28.9279C90.4053 31.8279 89.0953 1.79788 76.9853 7.81788C70.6153 11.1079 72.4853 20.8679 70.6053 24.8979C68.3953 24.2079 64.0753 11.0879 62.0053 6.92787C56.6553 -3.66213 47.8353 1.91785 46.3253 9.47785C45.4453 14.1479 46.4153 17.6479 46.6353 21.9779C46.4753 21.7279 46.3153 21.4879 46.1553 21.2379C40.1753 11.8279 34.3553 -1.98214 26.3753 0.237863C24.3653 0.757863 22.8353 2.27788 21.7653 4.06788C17.6153 11.2079 22.9753 21.0179 22.0153 25.5279C17.5353 21.8579 3.21528 -7.47213 0.0652765 10.3079C-0.274723 12.8479 0.785296 12.9379 1.5853 10.6879C1.8753 9.85787 3.04526 7.05788 3.86526 7.37788C6.90526 8.01788 13.0653 25.4579 17.6153 30.2779C22.1353 34.8579 27.4953 31.7379 28.9653 27.3479C30.6853 21.9779 28.0753 15.2379 28.6153 10.3779C35.4153 19.4079 40.1553 36.4579 49.1253 34.4379C49.7453 34.3079 50.5553 33.9379 50.6453 33.8779C58.4053 30.0279 56.2453 20.7679 55.7553 15.4079C59.8253 24.7779 64.3853 36.0179 73.8853 32.2679C80.9353 28.9679 77.7753 17.5479 79.5253 13.9179C79.8953 13.1579 80.0952 13.6179 80.2852 13.7979C82.7552 16.0879 86.4153 25.0179 90.4553 29.5979C95.1053 34.6879 101.655 33.1779 100.935 26.8279C100.585 24.1779 99.6953 21.9279 99.3953 20.5179C99.0253 18.7679 98.0653 17.0279 97.8353 18.5879L97.8253 18.5679ZM22.3453 25.7679C22.4453 25.7879 22.5353 25.8079 22.5553 25.8379C22.6053 25.8879 22.5053 25.8579 22.3453 25.7679Z" fill="#F4B934"/>
<path d="M22.8953 21.1279C23.0453 21.2179 23.1452 21.2478 23.1052 21.1978C23.0852 21.1678 22.9953 21.1479 22.8953 21.1279Z" fill="#EB9D30"/>
<path d="M51.0853 30.3779C50.9953 30.4379 50.1852 30.8079 49.5652 30.9379C40.5952 32.9579 35.3052 14.9579 28.5052 5.92786C28.6552 7.46786 28.6152 10.3679 28.6152 10.3679C34.9752 19.6179 40.5252 36.3579 49.1252 34.4279C49.7452 34.2979 50.5553 33.9279 50.6453 33.8679C55.3553 31.5279 56.4053 27.1978 56.3953 22.9478C55.6853 25.4878 54.0553 28.8979 51.0953 30.3679L51.0853 30.3779Z" fill="#EB9D30"/>
<path d="M29.5452 22.5979C29.5452 22.5979 29.5253 22.6678 29.5153 22.6978C28.0453 27.0878 23.2153 31.6579 18.6953 27.0779C16.8953 25.1679 13.0353 19.6679 11.0253 15.6179C9.43527 12.4179 5.72526 7.69787 4.39526 7.62787C7.57526 9.89787 13.3152 25.7179 17.6152 30.2679C22.1352 34.8479 27.4953 31.7279 28.9653 27.3379C29.4453 25.8379 29.5852 24.2379 29.5552 22.5979H29.5452Z" fill="#EB9D30"/>
<path d="M100.795 26.0079C100.175 27.0079 99.2153 27.6379 98.0753 27.8779C97.9553 28.4079 97.7653 28.7779 97.4553 28.9379C95.9753 29.5479 94.7552 28.6979 93.6252 27.0479C92.7252 26.5479 91.8352 25.8579 90.9952 24.9479C86.9552 20.3679 83.3053 11.4379 80.8253 9.14786C80.6353 8.97786 80.4352 8.50786 80.0652 9.26786C79.5452 10.3479 79.4553 12.1379 79.4053 14.1879C79.4353 14.0979 79.4652 13.9979 79.5052 13.9179C79.8752 13.1579 80.0753 13.6179 80.2653 13.7979C82.7353 16.0879 86.3952 25.0179 90.4352 29.5979C95.0852 34.6879 101.635 33.1779 100.915 26.8279C100.875 26.5579 100.835 26.2879 100.785 26.0279L100.795 26.0079Z" fill="#EB9D30"/>
<path d="M74.2153 28.8279C64.7153 32.5779 59.7153 20.0579 55.6453 10.6779C55.8353 12.7479 55.7152 12.7079 55.7452 15.3979C60.4952 26.9679 65.3052 35.6378 73.8752 32.2578C77.9052 30.3678 78.5953 25.8378 78.7753 21.6078C78.1853 24.1678 76.7553 27.6279 74.2053 28.8179L74.2153 28.8279Z" fill="#EB9D30"/>
<path d="M55.7453 2.04785C55.7453 2.04785 51.2753 1.70785 50.2753 4.32785C49.2753 6.95785 49.6053 8.28785 51.4453 6.82785C53.2853 5.36785 56.8753 2.02787 55.7453 2.03787V2.04785Z" fill="#FFD470"/>
<path d="M27.9053 1.05786C27.9053 1.05786 24.3653 1.14787 23.3953 3.46786C22.4253 5.79786 21.2553 8.99785 23.3953 6.79785C25.5253 4.59785 29.4452 1.87785 27.9152 1.04785L27.9053 1.05786Z" fill="#FFD470"/>
<path d="M95.6953 9.98787C95.6953 9.98787 94.7352 16.3879 98.2252 15.1379C101.715 13.8879 97.5953 7.26787 95.6953 9.98787Z" fill="#F4B934"/>
<path d="M98.1152 9.98785C99.1152 11.4779 99.4553 13.7079 97.5753 14.3779C96.8953 14.6179 96.3953 14.5679 96.0153 14.3379C96.3853 15.1079 97.0553 15.5578 98.2153 15.1378C100.455 14.3378 99.5452 11.3179 98.1152 9.98785Z" fill="#EB9D30"/>
<path d="M96.6752 9.99786C96.6752 9.99786 95.3253 13.8979 96.7553 13.0379C98.1853 12.1779 97.6552 10.0079 96.6752 9.99786Z" fill="#FFD470"/>
</g>
<defs>
<clipPath id="clip0_9_4222">
<rect width="100.99" height="34.6026" fill="white"/>
</clipPath>
</defs>
</svg>
